<?xml version="1.0" encoding="UTF-8" standalone="yes"?>
<svg xmlns="http://www.w3.org/2000/svg" xmlns:xlink="http://www.w3.org/1999/xlink" version="1.0" x="0" y="0" width="360" height="240">
<rect width="360" height="240" x="0" y="0" fill="#ce1126" />
  <polygon points="360,0 0,240 360,240" fill="#ce1126" />
<polygon points="0,0 40,0 360,200, 360,240, 320,240, 0,40" fill="#ffffff" />
    <polygon points="360,0 320,0 0,200, 0,240, 40,240, 360,40" fill="#ffffff" />
<g transform="translate(180.000000,120.000000)">
<g transform="scale(3.921569)">
<g transform="translate(-25.000000,-26.000000)">

  <path d="M39.83 47.1L25.05 39.5 9.17 46.35 11.02 30.02 0.5 18.58 16.87 15.48 24.44 0.5 31.39 17.18 49.36 18.41 36.76 30.88 39.83 47.1z" style="fill:#ffffff;stroke-width:0.8;stroke:#000"/>
  <path d="M25.01 28.07C20.31 3.63 30.32 3.4 37.74 7.96 45.24 12.56 47.72 21.02 25.01 28.07z" style="fill:#ffffff;stroke-width:0.8;stroke:#000"/>
  <path d="M24.9 24.83C0.66 23.94 5.07 12.77 10.49 8.15 15.86 3.57 26.56 1.1 24.9 24.83z" style="fill:#ffffff;stroke-width:0.8;stroke:#000"/>
  <path d="M24.73 29.08C43.17 16.42 48.57 22.8 45.81 32.52 43.08 42.16 38.71 46.59 24.73 29.08z" style="fill:#ffffff;stroke-width:0.8;stroke:#000"/>
  <path d="M23.66 27.83C41.52 42.91 30.26 50.12 23.46 50.04 16.65 49.97 6.88 42.89 23.66 27.83z" style="fill:#ffffff;stroke-width:0.8;stroke:#000"/>
  <path d="M23.38 26.07C13.17 45.98 4.31 41.3 2.44 32.96 0.58 24.65 2.76 17.31 23.38 26.07z" style="fill:#ffffff;stroke-width:0.8;stroke:#000"/>
  <path d="M16.83 16.5L26.69 21.86 32.55 16.2 30.18 25.69 36.64 30.67 27.71 31.25 23.62 39.11 21.62 30.01 12.34 29.73 20.36 23.93 16.83 16.5z" style="fill:#ffffff;stroke-width:0.8;stroke:#000"/>
  <path d="M32.07 26.66C32.07 30.57 28.89 33.75 24.98 33.75 21.06 33.75 17.88 30.57 17.88 26.66 17.88 22.74 21.06 19.56 24.98 19.56 28.89 19.56 32.07 22.74 32.07 26.66L32.07 26.66z" style="fill:#ffffff;stroke-width:0.8;stroke:#000"/>
  <path d="M17.01 43.78C19.33 46.28 23.03 43.9 24.53 43.84 26.05 43.79 28.35 46.26 30.62 43.45" style="fill:#ffffff;stroke-width:0.8;stroke:#000"/>
  <path d="M39.05 38.65C41.26 37.17 40.49 32.99 41 31.58 41.51 30.14 44.36 28.19 42.96 25.21" style="fill:#ffffff;stroke-width:0.8;stroke:#000"/>
  <path d="M40.32 16.84C39.79 12.67 36.61 13.45 35.28 12.77 33.92 12.07 32.16 7.65 28.28 9.52" style="fill:#ffffff;stroke-width:0.8;stroke:#000"/>
  <path d="M19.47 8.45C15.36 7.63 14.16 11.69 13.09 12.74 12 13.8 9.42 14.24 9.63 17.85" style="fill:#ffffff;stroke-width:0.8;stroke:#000"/>
  <path d="M6.17 24.78C3.83 28.27 7.12 30.93 7.68 32.32 8.24 33.74 7.66 36.29 11.06 37.49" style="fill:#ffffff;stroke-width:0.8;stroke:#000"/>
</g>
</g>
</g>
</svg>

